<svg version="1.1" id="Layer_1" xmlns="http://www.w3.org/2000/svg" xmlns:xlink="http://www.w3.org/1999/xlink" x="0px" y="0px"
	 width="100%" viewBox="0 0 512 512" enable-background="new 0 0 512 512" xml:space="preserve">
<path fill="#002255" opacity="1.000000" stroke="none" 
	d="
M0.999994,476.000000 
	C1.000000,330.309265 1.000000,184.618515 1.362065,38.439899 
	C2.298550,37.005901 3.045645,36.123444 3.421495,35.104099 
	C9.077147,19.765331 19.485744,9.207375 34.847527,3.505517 
	C36.043568,3.061583 36.955841,1.853126 38.000000,1.000000 
	C183.690750,1.000000 329.381500,1.000000 475.560272,1.362013 
	C476.994476,2.298470 477.877014,3.045556 478.896393,3.421466 
	C494.234741,9.077693 504.793243,19.485807 510.494476,34.848068 
	C510.938293,36.043945 512.146851,36.956024 513.000000,38.000008 
	C513.000000,183.690750 513.000000,329.381500 512.638000,475.560242 
	C511.701569,476.994476 510.954468,477.876984 510.578583,478.896362 
	C504.922394,494.234802 494.514160,504.793152 479.151947,510.494446 
	C477.956055,510.938263 477.044006,512.146851 476.000000,513.000000 
	C330.309265,513.000000 184.618515,513.000000 38.439907,512.637939 
	C37.005909,511.701477 36.123425,510.954407 35.104084,510.578552 
	C19.765305,504.922913 9.207410,494.514252 3.505533,479.152496 
	C3.061578,477.956451 1.853113,477.044189 0.999994,476.000000 
M373.208618,97.478790 
	C373.208618,95.038658 373.208618,92.598526 373.208618,89.343262 
	C295.544159,89.909737 218.470810,90.471901 141.210052,91.035431 
	C141.210052,99.163040 141.210052,105.924019 141.210052,112.765030 
	C154.924072,115.266060 168.445511,117.731972 181.903320,120.186287 
	C181.903320,212.213684 181.903320,303.817108 181.903320,395.598755 
	C168.134186,398.490204 154.574036,401.337738 141.312668,404.122559 
	C141.312668,411.360474 141.312668,417.950500 141.312668,424.602661 
	C185.382339,424.602661 229.134430,424.602661 273.096771,424.602661 
	C273.096771,417.738312 273.096771,411.104523 273.096771,404.137115 
	C257.785767,401.527740 242.428284,398.616028 226.966339,396.450134 
	C222.165497,395.777649 221.621460,393.815186 221.634583,389.772705 
	C221.755783,352.439789 221.706100,315.106293 221.706100,277.772980 
	C221.706100,275.989105 221.706100,274.205261 221.706100,271.982422 
	C260.552979,271.982422 298.968689,271.982422 337.580322,271.982422 
	C337.580322,262.135620 337.580322,252.735214 337.580322,242.877991 
	C298.908508,242.877991 260.490631,242.877991 222.024902,242.877991 
	C222.024902,201.373154 222.024902,160.326950 222.024902,119.170135 
	C262.132599,119.170135 301.921387,119.170135 341.982941,119.170135 
	C344.547394,134.811722 347.093109,150.339203 349.608795,165.683533 
	C357.867615,165.683533 365.618103,165.683533 373.213684,165.683533 
	C373.213684,143.057419 373.213684,120.752983 373.208618,97.478790 
z"/>
<path fill="#000000" opacity="1.000000" stroke="none" 
	d="
M37.531342,1.000000 
	C36.955841,1.853126 36.043568,3.061583 34.847527,3.505517 
	C19.485744,9.207375 9.077147,19.765331 3.421495,35.104099 
	C3.045645,36.123444 2.298550,37.005901 1.362065,37.976013 
	C1.000000,25.740049 1.000000,13.480098 1.000000,1.000000 
	C13.020000,1.000000 25.041342,1.000000 37.531342,1.000000 
z"/>
<path fill="#000000" opacity="1.000000" stroke="none" 
	d="
M513.000000,37.531349 
	C512.146851,36.956024 510.938293,36.043945 510.494476,34.848068 
	C504.793243,19.485807 494.234741,9.077693 478.896393,3.421466 
	C477.877014,3.045556 476.994476,2.298470 476.024170,1.362013 
	C488.259949,1.000000 500.519897,1.000000 513.000000,1.000000 
	C513.000000,13.020000 513.000000,25.041342 513.000000,37.531349 
z"/>
<path fill="#000000" opacity="1.000000" stroke="none" 
	d="
M0.999994,476.468658 
	C1.853113,477.044189 3.061578,477.956451 3.505533,479.152496 
	C9.207410,494.514252 19.765305,504.922913 35.104084,510.578552 
	C36.123425,510.954407 37.005909,511.701477 37.976021,512.637939 
	C25.740049,513.000000 13.480098,513.000000 1.000000,513.000000 
	C1.000000,500.980011 1.000000,488.958649 0.999994,476.468658 
z"/>
<path fill="#000000" opacity="1.000000" stroke="none" 
	d="
M476.468658,513.000000 
	C477.044006,512.146851 477.956055,510.938263 479.151947,510.494446 
	C494.514160,504.793152 504.922394,494.234802 510.578583,478.896362 
	C510.954468,477.876984 511.701569,476.994476 512.638000,476.024139 
	C513.000000,488.259949 513.000000,500.519897 513.000000,513.000000 
	C500.980011,513.000000 488.958649,513.000000 476.468658,513.000000 
z"/>
<path fill="#FDFDFD" opacity="1.000000" stroke="none" 
	d="
M373.211151,97.963669 
	C373.213684,120.752983 373.213684,143.057419 373.213684,165.683533 
	C365.618103,165.683533 357.867615,165.683533 349.608795,165.683533 
	C347.093109,150.339203 344.547394,134.811722 341.982941,119.170135 
	C301.921387,119.170135 262.132599,119.170135 222.024902,119.170135 
	C222.024902,160.326950 222.024902,201.373154 222.024902,242.877991 
	C260.490631,242.877991 298.908508,242.877991 337.580322,242.877991 
	C337.580322,252.735214 337.580322,262.135620 337.580322,271.982422 
	C298.968689,271.982422 260.552979,271.982422 221.706100,271.982422 
	C221.706100,274.205261 221.706100,275.989105 221.706100,277.772980 
	C221.706100,315.106293 221.755783,352.439789 221.634583,389.772705 
	C221.621460,393.815186 222.165497,395.777649 226.966339,396.450134 
	C242.428284,398.616028 257.785767,401.527740 273.096771,404.137115 
	C273.096771,411.104523 273.096771,417.738312 273.096771,424.602661 
	C229.134430,424.602661 185.382339,424.602661 141.312668,424.602661 
	C141.312668,417.950500 141.312668,411.360474 141.312668,404.122559 
	C154.574036,401.337738 168.134186,398.490204 181.903320,395.598755 
	C181.903320,303.817108 181.903320,212.213684 181.903320,120.186287 
	C168.445511,117.731972 154.924072,115.266060 141.210052,112.765030 
	C141.210052,105.924019 141.210052,99.163040 141.210052,91.035431 
	C218.470810,90.471901 295.544159,89.909737 373.208618,89.343262 
	C373.208618,92.598526 373.208618,95.038658 373.211151,97.963669 
z"/>
</svg>